<svg width="125" height="125" viewBox="0 0 125 125" fill="none" xmlns="http://www.w3.org/2000/svg">
<circle cx="62.5" cy="62.5" r="62.5" fill="#D1D1D1"/>
<path fill-rule="evenodd" clip-rule="evenodd" d="M60.0196 25C62.2133 25 63.3103 25.8866 63.3103 27.6594C63.3102 28.499 62.9367 29.2224 62.19 29.8287C61.4899 30.4351 60.7664 30.7376 60.0196 30.7377L58.3738 30.8792C58.3751 30.9382 58.3797 30.9977 58.3797 31.0579C58.3797 32.3175 58.3324 34.7903 58.239 38.4758C58.1924 42.1148 58.1697 44.4012 58.1697 45.3342C60.7835 40.9489 64.4705 36.7966 69.2314 32.8777C74.0389 28.9588 77.8668 26.9994 80.714 26.9994C81.7872 26.9995 82.6737 27.3258 83.3737 27.9787C84.1205 28.6318 84.494 29.4721 84.494 30.4985C84.4939 31.5247 84.1204 32.3642 83.3737 33.0173C82.6736 33.6704 81.9501 33.9975 81.2034 33.9975C80.4567 33.9975 79.6867 33.8103 78.8933 33.4371C78.1465 33.0173 77.3058 32.8074 76.3724 32.8074C75.4388 32.8076 74.0154 33.508 72.102 34.9074C70.1884 36.307 68.1344 38.1729 65.9407 40.5055C63.8403 42.8382 62.1363 45.031 60.8294 47.0838C74.7853 65.1854 91.659 78.8782 111.449 88.1623C114.483 89.5619 116 91.148 116 92.9208C116 93.8538 115.674 94.6006 115.02 95.1604C114.367 95.7202 113.456 96 112.289 96C109.395 95.9998 104.541 93.5736 97.727 88.7217C90.9591 83.8697 83.934 78.0616 76.6527 71.2968C73.3388 68.2644 69.908 64.8352 66.3607 61.0096C62.8601 57.1374 60.1064 53.918 58.0994 51.3521C58.0994 51.3521 58.193 58.3975 58.3797 72.4869C58.3796 73.4665 58.0997 74.3297 57.5397 75.0761C57.0263 75.7758 56.2791 76.1255 55.299 76.1256C54.3189 76.1256 53.5254 75.7757 52.9187 75.0761C52.312 74.3297 52.0084 73.4666 52.0084 72.4869L52.358 51.3521L52.0464 33.0134C48.1157 35.2415 44.1695 38.951 40.4153 43.8249C44.1025 49.6564 45.9465 54.6245 45.9467 58.73C45.9467 62.7888 44.5698 66.3116 41.816 69.2974C39.0621 72.2366 36.4948 73.7063 34.1143 73.7063C31.7342 73.7063 29.8908 72.9366 28.584 71.3974C27.3237 69.8578 26.693 67.9674 26.693 65.7281C26.6931 63.4421 27.4402 60.5731 28.9337 57.121C30.4739 53.6221 32.4806 49.983 34.9543 46.2041C32.8073 42.985 30.3335 40.1391 27.533 37.6664C24.7326 35.1939 22.0024 33.4906 19.342 32.5575C19.342 32.6974 19.1547 34.0038 18.7813 36.4763C17.1477 46.6935 16.0281 60.1301 15.4213 76.7856C15.188 84.2967 15.0007 88.6587 14.8607 89.8718C14.7673 91.0848 14.3938 92.0177 13.7403 92.6708C13.0869 93.3706 12.3171 93.7203 11.4303 93.7204C10.5902 93.7204 9.79681 93.3706 9.05 92.6708C8.34989 92.0177 8 90.9213 8 89.3817C8.00009 87.8885 8.62988 83.4099 9.89001 75.9459C12.5038 60.4569 13.9043 45.6904 14.091 31.6476C12.1774 31.2277 11.2205 30.0385 11.2203 28.0792C11.2203 27.1929 11.6404 26.4697 12.4803 25.9099C13.3205 25.3034 14.3475 25 15.561 25C19.155 25 23.0292 26.5397 27.1833 29.6188C31.384 32.6513 35.1648 36.4766 38.5253 41.0952C42.0727 36.3832 45.7369 32.5344 49.5176 29.5486C53.2983 26.5161 56.799 25 60.0196 25ZM36.7047 49.1428C32.924 55.2078 31.0337 59.7805 31.0337 62.8597C31.0337 64.539 31.4546 66.0081 32.2947 67.2677C33.1815 68.5273 34.2784 69.1578 35.5853 69.1578C36.892 69.1576 38.0119 68.3409 38.9453 66.7083C39.9255 65.0287 40.4153 63.1856 40.4153 61.1795C40.4153 57.6339 39.1784 53.6214 36.7047 49.1428Z" fill="#1E1E1E"/>
</svg>
